<svg width="248" height="248" viewBox="0 0 248 248" fill="none" xmlns="http://www.w3.org/2000/svg">
    <path fill-rule="evenodd" clip-rule="evenodd"
        d="M56.3787 247.878C50.848 247.681 43.7198 247.248 40.4799 246.594C35.5343 245.596 30.8639 244.082 26.9798 242.102C22.4164 239.776 18.3264 236.809 14.7948 233.283C11.2551 229.75 8.27594 225.656 5.94093 221.086C3.96685 217.223 2.45348 212.581 1.45052 207.663C0.783433 204.391 0.342248 197.209 0.142249 191.643C0.061146 189.368 0.0195327 186.423 0.0195327 185.066L0 62.9536C0 61.6012 0.0411886 58.656 0.121867 56.3783C0.318469 50.848 0.751161 43.7198 1.40551 40.4799C2.4038 35.5347 3.91844 30.8639 5.89761 26.9798C8.22371 22.4159 11.1906 18.3268 14.7166 14.7948C18.2495 11.2555 22.3438 8.27636 26.9136 5.94093C30.7772 3.96727 35.4192 2.45348 40.3364 1.45052C43.609 0.783433 50.7906 0.342248 56.3571 0.142674C58.6313 0.061146 61.5761 0.0195327 62.9341 0.0195327L185.046 0C186.399 0 189.344 0.040764 191.621 0.121867C197.152 0.318893 204.28 0.751161 207.52 1.40551C212.465 2.40423 217.136 3.91886 221.02 5.89761C225.583 8.22371 229.673 11.191 233.205 14.7166C236.744 18.25 239.723 22.3433 242.059 26.9136C244.032 30.7772 245.547 35.4188 246.549 40.3364C247.217 43.609 247.657 50.7911 247.857 56.3571C247.939 58.6318 247.98 61.5761 247.98 62.9341L248 185.046C248 186.399 247.959 189.344 247.878 191.621C247.681 197.152 247.248 204.28 246.594 207.52C245.596 212.465 244.081 217.136 242.102 221.02C239.776 225.584 236.809 229.673 233.283 233.205C229.75 236.744 225.656 239.724 221.086 242.059C217.222 244.033 212.581 245.547 207.663 246.549C204.391 247.216 197.209 247.657 191.643 247.857C189.368 247.939 186.423 247.98 185.066 247.98L62.9536 248C61.6007 248 58.6555 247.959 56.3787 247.878Z"
        fill="#161722" />
    <mask id="mask0_4_182" style="mask-type:luminance" maskUnits="userSpaceOnUse" x="0" y="0"
        width="248" height="248">
        <path fill-rule="evenodd" clip-rule="evenodd"
            d="M56.3787 247.878C50.848 247.681 43.7198 247.248 40.4799 246.594C35.5343 245.596 30.8639 244.082 26.9798 242.102C22.4164 239.776 18.3264 236.809 14.7948 233.283C11.2551 229.75 8.27594 225.656 5.94093 221.086C3.96685 217.223 2.45348 212.581 1.45052 207.663C0.783433 204.391 0.342248 197.209 0.142249 191.643C0.061146 189.368 0.0195327 186.423 0.0195327 185.066L0 62.9536C0 61.6012 0.0411886 58.656 0.121867 56.3783C0.318469 50.848 0.751161 43.7198 1.40551 40.4799C2.4038 35.5347 3.91844 30.8639 5.89761 26.9798C8.22371 22.4159 11.1906 18.3268 14.7166 14.7948C18.2495 11.2555 22.3438 8.27636 26.9136 5.94093C30.7772 3.96727 35.4192 2.45348 40.3364 1.45052C43.609 0.783433 50.7906 0.342248 56.3571 0.142674C58.6313 0.061146 61.5761 0.0195327 62.9341 0.0195327L185.046 0C186.399 0 189.344 0.040764 191.621 0.121867C197.152 0.318893 204.28 0.751161 207.52 1.40551C212.465 2.40423 217.136 3.91886 221.02 5.89761C225.583 8.22371 229.673 11.191 233.205 14.7166C236.744 18.25 239.723 22.3433 242.059 26.9136C244.032 30.7772 245.547 35.4188 246.549 40.3364C247.217 43.609 247.657 50.7911 247.857 56.3571C247.939 58.6318 247.98 61.5761 247.98 62.9341L248 185.046C248 186.399 247.959 189.344 247.878 191.621C247.681 197.152 247.248 204.28 246.594 207.52C245.596 212.465 244.081 217.136 242.102 221.02C239.776 225.584 236.809 229.673 233.283 233.205C229.75 236.744 225.656 239.724 221.086 242.059C217.222 244.033 212.581 245.547 207.663 246.549C204.391 247.216 197.209 247.657 191.643 247.857C189.368 247.939 186.423 247.98 185.066 247.98L62.9536 248C61.6007 248 58.6555 247.959 56.3787 247.878Z"
            fill="white" />
    </mask>
    <g mask="url(#mask0_4_182)">
        <path
            d="M102.738 103.795V96.1888C100.099 95.7689 97.4336 95.5411 94.7621 95.5072C82.1856 95.4773 69.9286 99.4665 59.779 106.893C49.6294 114.319 42.1182 124.795 38.3411 136.791C34.564 148.786 34.7186 161.675 38.7824 173.577C42.8462 185.479 50.6065 195.771 60.9314 202.952C53.1678 194.636 47.9766 184.25 45.9844 173.049C43.9921 161.848 45.2839 150.31 49.7038 139.826C54.1237 129.343 61.4828 120.363 70.8933 113.969C80.3037 107.576 91.3633 104.042 102.738 103.795Z"
            fill="#65D2E9" />
        <path
            d="M104.173 189.72C111.119 189.711 117.795 187.024 122.81 182.217C127.824 177.411 130.792 170.855 131.094 163.915V35.2849H154.6C154.121 32.5977 153.89 29.8721 153.911 27.1426H121.77V155.643C121.511 162.615 118.562 169.216 113.542 174.061C108.521 178.906 101.819 181.618 94.8418 181.628C90.5101 181.59 86.2489 180.527 82.4073 178.525C84.8967 181.974 88.166 184.786 91.9485 186.731C95.731 188.677 99.9197 189.701 104.173 189.72Z"
            fill="#65D2E9" />
        <path
            d="M198.494 78.9251V71.7762C189.845 71.776 181.389 69.2236 174.184 64.4387C180.498 71.7841 189.031 76.8743 198.494 78.9397V78.9251Z"
            fill="#65D2E9" />
        <path
            d="M174.184 64.439C167.088 56.3562 163.176 45.9678 163.177 35.2124H154.6C155.709 41.1576 158.016 46.8148 161.382 51.8395C164.747 56.8642 169.101 61.1511 174.176 64.439H174.184Z"
            fill="#E6436D" />
        <path
            d="M94.7838 127.67C88.7662 127.703 82.9324 129.747 78.2091 133.475C73.4857 137.204 70.1438 142.404 68.7141 148.25C67.2844 154.095 67.8489 160.251 70.3181 165.738C72.7872 171.226 77.0193 175.732 82.342 178.539C79.431 174.518 77.688 169.771 77.3057 164.822C76.9233 159.872 77.9164 154.914 80.1753 150.494C82.4342 146.073 85.8709 142.363 90.1059 139.774C94.3409 137.184 99.2092 135.816 104.173 135.819C106.877 135.848 109.563 136.265 112.149 137.059V104.352C109.508 103.957 106.843 103.751 104.173 103.736H102.723V128.605C100.136 127.912 97.4615 127.597 94.7838 127.67Z"
            fill="#E6436D" />
        <path
            d="M198.494 78.925V103.794C182.48 103.759 166.882 98.6861 153.911 89.2932V154.642C153.879 170.302 147.635 185.31 136.55 196.371C125.465 207.433 110.444 213.646 94.7838 213.646C82.6717 213.67 70.8509 209.933 60.9531 202.952C69.0239 211.633 79.5222 217.683 91.0803 220.313C102.638 222.943 114.721 222.031 125.753 217.696C136.786 213.361 146.257 205.805 152.934 196.01C159.61 186.216 163.182 174.638 163.185 162.784V97.6385C176.2 106.969 191.819 111.974 207.833 111.944V79.9184C204.694 79.9115 201.565 79.5786 198.494 78.925Z"
            fill="#E6436D" />
        <path
            d="M153.911 154.657V89.3081C166.934 98.6458 182.565 103.648 198.589 103.606V78.7369C189.128 76.7404 180.573 71.7223 174.213 64.439C169.137 61.1511 164.784 56.8642 161.418 51.8395C158.052 46.8148 155.745 41.1576 154.636 35.2124H131.094V163.923C130.865 169.525 128.897 174.917 125.463 179.349C122.029 183.781 117.299 187.033 111.932 188.654C106.565 190.275 100.826 190.184 95.5124 188.393C90.1992 186.603 85.5756 183.202 82.284 178.663C76.9596 175.858 72.7254 171.354 70.2546 165.867C67.7837 160.38 67.2178 154.224 68.647 148.378C70.0762 142.532 73.4183 137.332 78.1422 133.603C82.8661 129.875 88.7007 127.833 94.7186 127.801C97.4233 127.823 100.11 128.241 102.694 129.041V104.164C91.2575 104.359 80.1245 107.876 70.6525 114.288C61.1804 120.7 53.7785 129.73 49.3491 140.276C44.9197 150.821 43.6543 162.428 45.707 173.681C47.7597 184.933 53.0419 195.345 60.9096 203.648C70.902 210.39 82.7322 213.881 94.7838 213.646C110.442 213.646 125.46 207.436 136.545 196.377C147.629 185.318 153.875 170.314 153.911 154.657Z"
            fill="white" />
    </g>
</svg>